<?xml version="1.0" encoding="utf-8"?>
<!-- Generator: Adobe Illustrator 24.0.2, SVG Export Plug-In . SVG Version: 6.00 Build 0)  -->
<svg version="1.1" id="Layer_1" xmlns="http://www.w3.org/2000/svg" xmlns:xlink="http://www.w3.org/1999/xlink" x="0px" y="0px"
	 viewBox="0 0 512 512" style="enable-background:new 0 0 512 512;" xml:space="preserve">
<style type="text/css">
	.st0{fill:#F0F0F0;}
	.st1{fill:#114B7F;}
	.st2{fill:#FBD33B;}
	.st3{opacity:0.1;}
	.st4{fill:#91CFE5;}
	.st5{opacity:0.1;enable-background:new    ;}
	.st6{fill:#0184B8;}
	.st7{fill:#FFFFFF;}
	.st8{fill:#FF9B4B;}
</style>
<circle class="st0" cx="256" cy="256" r="256"/>
<path class="st1" d="M214.8,139.8c1.7,4.5-0.8,8.2-5.7,8.2h-67.7c-4.9,0-8.8-4-8.8-8.8v-55c0-4.9,4-8.8,8.8-8.8h39.9
	c4.9,0,10.2,3.7,12,8.2L214.8,139.8z"/>
<polygon class="st2" points="132.6,109.7 203.3,109.7 198.4,96.8 132.6,96.8 "/>
<g class="st3">
	<path d="M155.8,139.2v-55c0-4.9,4-8.8,8.8-8.8h-23.2c-4.9,0-8.8,4-8.8,8.8v55c0,4.9,4,8.8,8.8,8.8h23.2
		C159.8,148,155.8,144,155.8,139.2z"/>
</g>
<path class="st2" d="M329.7,143.2c-3-3.8-9.5-6.9-14.3-6.9H127c-4.9,0-9.7,3.9-10.9,8.6l-5.7,24c-1.1,4.7,1.9,8.6,6.8,8.6h230.8
	c4.9,0,6.4-3.1,3.3-6.9L329.7,143.2z"/>
<g class="st3">
	<path d="M138.4,168.9l5.7-24c1.1-4.7,6-8.6,10.9-8.6H127c-4.9,0-9.7,3.9-10.9,8.6l-5.7,24c-1.1,4.7,1.9,8.6,6.8,8.6h27.9
		C140.3,177.5,137.3,173.7,138.4,168.9z"/>
</g>
<path class="st4" d="M147.4,250.6c1.9,0,5.2,1.8,6.2,3.4l0.4,0.6c4.2,6.7,12.9,11.5,20.8,11.5h105.1c8.1,0,16.9-5.5,20.4-12.8
	l21.5-44.5c0.7-1.4,3.4-3.1,4.9-3.1h90.3l-31.8-27.2c-4.1-3.5-11.8-6.3-17.2-6.3H100c-5.4,0-10.5,4.3-11.4,9.6l-11.9,68.7
	L147.4,250.6z"/>
<path class="st5" d="M92.8,250.6l11.9-68.7c0.9-5.3,6-9.6,11.4-9.6H100c-5.4,0-10.5,4.3-11.4,9.6l-11.9,68.7L92.8,250.6z"/>
<path class="st6" d="M457.3,197.2H326.8c-4.9,0-10.6,3.6-12.7,7.9l-21.5,44.5c-2.1,4.4-7.8,7.9-12.7,7.9H174.8
	c-4.9,0-10.9-3.4-13.5-7.5l-0.4-0.6c-2.6-4.1-8.7-7.5-13.5-7.5H57.9c-4.9,0-7.8,3.8-6.5,8.5l26.6,97.2h324.7l60-142.4
	C464.5,200.8,462.1,197.2,457.3,197.2z"/>
<g class="st3">
	<path d="M77.9,347.7h21.8l-26.6-97.2c-1.3-4.7,1.6-8.5,6.5-8.5H57.9c-4.9,0-7.8,3.8-6.5,8.5L77.9,347.7z"/>
</g>
<polygon class="st2" points="295.3,244 446.3,244 454.8,224 305,224 "/>
<g class="st3">
	<polygon points="305,224 295.3,244 322.9,244 332.6,224 	"/>
</g>
<ellipse class="st4" cx="108.3" cy="293.7" rx="13.8" ry="13.9"/>
<circle class="st7" cx="161.7" cy="293.7" r="13.8"/>
<circle class="st4" cx="215.1" cy="293.7" r="13.8"/>
<ellipse class="st7" cx="268.5" cy="293.7" rx="13.8" ry="13.9"/>
<ellipse class="st4" cx="321.9" cy="293.7" rx="13.8" ry="13.9"/>
<ellipse class="st7" cx="375.3" cy="293.7" rx="13.8" ry="13.9"/>
<path class="st1" d="M434.8,359.1c-10.6,0-20.5-4.4-27.6-11.9c-7.1,7.5-17.1,11.9-27.6,11.9c-10.6,0-20.5-4.4-27.6-11.9
	c-7.1,7.5-17.1,11.9-27.6,11.9s-20.5-4.4-27.6-11.9c-7.1,7.5-17.1,11.9-27.6,11.9c-10.6,0-20.5-4.4-27.6-11.9
	c-7.1,7.5-17.1,11.9-27.6,11.9c-10.6,0-20.5-4.4-27.6-11.9c-7.1,7.5-17.1,11.9-27.6,11.9c-10.6,0-20.5-4.4-27.6-11.9
	c-7.1,7.5-17.1,11.9-27.6,11.9c-10.6,0-20.5-4.4-27.6-11.9c-7.1,7.5-17.1,11.9-27.6,11.9c-3.6,0-6.5-2.9-6.5-6.5
	c0-3.6,2.9-6.5,6.5-6.5c9.1,0,17.6-5,22-13c1.1-2.1,3.3-3.3,5.6-3.3s4.5,1.3,5.6,3.3c4.4,8,12.9,13,22,13c9.1,0,17.6-5,22-13
	c1.1-2.1,3.3-3.3,5.6-3.3s4.5,1.3,5.6,3.3c4.4,8,12.9,13,22,13c9.1,0,17.6-5,22-13c1.1-2.1,3.3-3.3,5.6-3.3c2.3,0,4.5,1.3,5.6,3.3
	c4.4,8,12.9,13,22,13c9.1,0,17.6-5,22-13c1.1-2.1,3.3-3.3,5.6-3.3c2.3,0,4.5,1.3,5.6,3.3c4.4,8,12.9,13,22,13c9.1,0,17.6-5,22-13
	c1.1-2.1,3.3-3.3,5.6-3.3l0,0c2.3,0,4.5,1.3,5.6,3.3c4.4,8,12.9,13,22,13c9.1,0,17.6-5,22-13c1.1-2.1,3.3-3.3,5.6-3.3
	s4.5,1.3,5.7,3.3c4.4,8,12.9,13,22,13c9.1,0,17.6-5,22-13c1.1-2.1,3.3-3.3,5.6-3.3s4.5,1.3,5.7,3.3c4.4,8,12.9,13,22,13
	c3.6,0,6.5,2.9,6.5,6.5C441.3,356.2,438.4,359.1,434.8,359.1z"/>
<g>
	<path class="st4" d="M103.1,395.7c-13.8,0-26.6-7.5-33.3-19.6c-1.7-3.1-0.6-7.1,2.5-8.8c3.1-1.7,7.1-0.6,8.8,2.5
		c4.4,8,12.9,13,22,13c9.1,0,17.6-5,22-13c1.1-2.1,3.3-3.3,5.6-3.3s4.5,1.3,5.6,3.3c3,5.4,7.8,9.5,13.6,11.5
		c3.4,1.2,5.1,4.9,3.9,8.2c-1.2,3.4-4.9,5.1-8.2,3.9c-5.7-2-10.9-5.4-15-9.7C123.6,391.3,113.7,395.7,103.1,395.7z"/>
	<path class="st4" d="M379.5,395.7c-10.6,0-20.5-4.4-27.6-11.9c-3,3.2-6.5,5.8-10.4,7.8c-5.3,2.7-11.2,4.1-17.2,4.1
		c-10.6,0-20.5-4.4-27.6-11.9c-7.1,7.5-17.1,11.9-27.6,11.9c-10.6,0-20.5-4.4-27.6-11.9c-7.1,7.5-17.1,11.9-27.6,11.9
		c-10.6,0-20.5-4.4-27.6-11.9c-3.6,3.8-7.9,6.8-12.7,8.9c-3.3,1.4-7.1-0.1-8.5-3.4c-1.4-3.3,0.1-7.1,3.4-8.5
		c5.1-2.2,9.4-6.1,12.1-11c1.1-2.1,3.3-3.3,5.6-3.3c2.3,0,4.5,1.3,5.6,3.3c4.4,8,12.9,13,22,13c9.1,0,17.6-5,22-13
		c1.1-2.1,3.3-3.3,5.6-3.3c2.3,0,4.5,1.3,5.6,3.3c4.4,8,12.9,13,22,13c9.1,0,17.6-5,22-13c1.1-2.1,3.3-3.3,5.6-3.3l0,0
		c2.3,0,4.5,1.3,5.6,3.3c4.4,8,12.9,13,22,13c4,0,7.8-0.9,11.4-2.7c4.5-2.3,8.2-5.8,10.6-10.3c1.1-2.1,3.3-3.3,5.6-3.3
		c2.3,0,4.5,1.3,5.7,3.3c4.4,8,12.9,13,22,13c9.1,0,17.6-5,22-13c1.7-3.1,5.7-4.2,8.8-2.5c3.1,1.7,4.2,5.7,2.5,8.8
		C406.1,388.2,393.4,395.7,379.5,395.7z"/>
</g>
<path class="st6" d="M281.9,218.2c0,1.5-1.2,2.6-2.6,2.6H113.1c-1.5,0-2.6-1.2-2.6-2.6v-19.4c0-1.5,1.2-2.6,2.6-2.6h166.2
	c1.5,0,2.6,1.2,2.6,2.6L281.9,218.2L281.9,218.2z"/>
<g class="st3">
	<path d="M122.3,218.2v-19.4c0-1.5,1.2-2.6,2.6-2.6h-11.8c-1.5,0-2.6,1.2-2.6,2.6v19.4c0,1.5,1.2,2.6,2.6,2.6h11.8
		C123.4,220.8,122.3,219.6,122.3,218.2z"/>
</g>
<path class="st1" d="M279.3,191.9H113.1c-3.8,0-7,3.1-7,7v19.4c0,3.8,3.1,7,7,7h166.2c3.8,0,7-3.1,7-7v-19.4
	C286.2,195,283.1,191.9,279.3,191.9z M163.1,200.5h15.6v16h-15.6L163.1,200.5L163.1,200.5z M154.5,216.5h-15.6v-16h15.6V216.5z
	 M187.3,200.5h15.6v16h-15.6V200.5z M211.5,200.5h15.6v16h-15.6V200.5z M235.7,200.5h15.6v16h-15.6V200.5z M114.8,200.5h15.5v16
	h-15.5V200.5z M277.6,216.5h-17.7v-16h17.7V216.5z"/>
<path class="st8" d="M332.8,147.2h-75.6c-3.6,0-6.5,2.9-6.5,6.5s2.9,6.5,6.5,6.5h85.8L332.8,147.2z"/>
</svg>
