<?xml version="1.0" encoding="UTF-8"?>
<svg xmlns="http://www.w3.org/2000/svg" xmlns:xlink="http://www.w3.org/1999/xlink" width="64pt" height="64pt" viewBox="0 0 64 64" version="1.1">
<defs>
<linearGradient id="linear0" gradientUnits="userSpaceOnUse" x1="99.4375" y1="38.96875" x2="99.4375" y2="51.95475" gradientTransform="matrix(0.372093,0,0,0.372093,0,0)">
<stop offset="0" style="stop-color:rgb(100%,91.372549%,90.588235%);stop-opacity:1;"/>
<stop offset="1" style="stop-color:rgb(86.666667%,43.137255%,58.823529%);stop-opacity:1;"/>
</linearGradient>
<linearGradient id="linear1" gradientUnits="userSpaceOnUse" x1="72.5625" y1="38.96875" x2="72.5625" y2="51.95475" gradientTransform="matrix(0.372093,0,0,0.372093,0,0)">
<stop offset="0" style="stop-color:rgb(100%,91.372549%,90.588235%);stop-opacity:1;"/>
<stop offset="1" style="stop-color:rgb(86.666667%,43.137255%,58.823529%);stop-opacity:1;"/>
</linearGradient>
<linearGradient id="linear2" gradientUnits="userSpaceOnUse" x1="86" y1="14.10938" x2="86" y2="159.186" gradientTransform="matrix(0.372093,0,0,0.372093,0,0)">
<stop offset="0" style="stop-color:rgb(100%,50.588235%,46.666667%);stop-opacity:1;"/>
<stop offset="1" style="stop-color:rgb(69.411765%,16.470588%,35.686275%);stop-opacity:1;"/>
</linearGradient>
</defs>
<g id="surface19821275">
<path style=" stroke:none;fill-rule:nonzero;fill:url(#linear0);" d="M 37 14.855469 C 35.894531 14.855469 35 15.75 35 16.855469 C 35 17.957031 35.894531 18.855469 37 18.855469 C 38.105469 18.855469 39 17.957031 39 16.855469 C 39 15.75 38.105469 14.855469 37 14.855469 Z M 37 14.855469 "/>
<path style=" stroke:none;fill-rule:nonzero;fill:url(#linear1);" d="M 27 14.855469 C 25.894531 14.855469 25 15.75 25 16.855469 C 25 17.957031 25.894531 18.855469 27 18.855469 C 28.105469 18.855469 29 17.957031 29 16.855469 C 29 15.75 28.105469 14.855469 27 14.855469 Z M 27 14.855469 "/>
<path style=" stroke:none;fill-rule:nonzero;fill:url(#linear2);" d="M 49 22 L 46.949219 22 C 46.667969 17.503906 44.492188 13.613281 41.1875 11.082031 L 44.707031 7.558594 L 43.292969 6.144531 L 39.484375 9.953125 C 37.292969 8.714844 34.746094 8 32 8 C 29.253906 8 26.707031 8.714844 24.515625 9.953125 L 20.707031 6.144531 L 19.292969 7.558594 L 22.8125 11.082031 C 19.507812 13.613281 17.335938 17.503906 17.050781 22 L 15 22 C 12.757812 22 11 23.691406 11 25.855469 L 11 38.855469 C 11 41.058594 12.792969 42.855469 15 42.855469 C 15.730469 42.855469 16 42.640625 17 42.296875 L 17 43.855469 C 17 46.292969 19 48.398438 21 48.890625 L 21 53.855469 C 21 56.058594 22.792969 57.855469 25 57.855469 C 27.207031 57.855469 29 56.058594 29 53.855469 L 29 49 L 35 49 L 35 53.855469 C 35 56.058594 36.792969 57.855469 39 57.855469 C 41.207031 57.855469 43 56.058594 43 53.855469 L 43 48.890625 C 45 48.398438 47 46.292969 47 43.855469 L 47 42.296875 C 48 42.640625 48.269531 42.855469 49 42.855469 C 51.207031 42.855469 53 41.058594 53 38.855469 L 53 25.855469 C 53 23.691406 51.242188 22 49 22 Z M 32 10 C 38.953125 10 44.46875 15.195312 44.964844 22 L 19.035156 22 C 19.53125 15.195312 25.046875 10 32 10 Z M 15 40.855469 C 13.898438 40.855469 13 39.957031 13 38.855469 L 13 25.855469 C 13 24.796875 13.859375 24 15 24 L 17 24 L 17 38.855469 C 17 39.957031 16.101562 40.855469 15 40.855469 Z M 27 53.855469 C 27 54.957031 26.101562 55.855469 25 55.855469 C 23.898438 55.855469 23 54.957031 23 53.855469 L 23 49 L 27 49 Z M 39 55.855469 C 37.898438 55.855469 37 54.957031 37 53.855469 L 37 49 L 41 49 L 41 53.855469 C 41 54.957031 40.101562 55.855469 39 55.855469 Z M 45 43.855469 C 45 45.558594 43.625 47 42 47 L 22 47 C 20.375 47 19 45.558594 19 43.855469 L 19 24 L 45 24 Z M 51 38.855469 C 51 39.957031 50.101562 40.855469 49 40.855469 C 47.898438 40.855469 47 39.957031 47 38.855469 L 47 24 L 49 24 C 50.140625 24 51 24.796875 51 25.855469 Z M 51 38.855469 "/>
</g>
</svg>
