<?xml version="1.0" encoding="UTF-8"?>
<svg xmlns="http://www.w3.org/2000/svg" xmlns:xlink="http://www.w3.org/1999/xlink" width="48pt" height="48pt" viewBox="0 0 48 48" version="1.1">
<g id="surface19803459">
<path style=" stroke:none;fill-rule:nonzero;fill:rgb(90.588235%,29.803922%,23.529412%);fill-opacity:1;" d="M 12 29 C 12 30.101562 11.101562 31 10 31 C 8.898438 31 8 30.101562 8 29 L 8 20 C 8 18.898438 8.898438 18 10 18 C 11.101562 18 12 18.898438 12 20 Z M 40 29 C 40 30.101562 39.101562 31 38 31 C 36.898438 31 36 30.101562 36 29 L 36 20 C 36 18.898438 36.898438 18 38 18 C 39.101562 18 40 18.898438 40 20 Z M 22 40 C 22 41.101562 21.101562 42 20 42 C 18.898438 42 18 41.101562 18 40 L 18 31 C 18 29.898438 18.898438 29 20 29 C 21.101562 29 22 29.898438 22 31 Z M 30 40 C 30 41.101562 29.101562 42 28 42 C 26.898438 42 26 41.101562 26 40 L 26 31 C 26 29.898438 26.898438 29 28 29 C 29.101562 29 30 29.898438 30 31 Z M 30 40 "/>
<path style=" stroke:none;fill-rule:nonzero;fill:rgb(90.588235%,29.803922%,23.529412%);fill-opacity:1;" d="M 14 18 L 14 33 C 14 34.101562 14.898438 35 16 35 L 32 35 C 33.101562 35 34 34.101562 34 33 L 34 18 Z M 24 8 C 18 8 14.300781 11.601562 14 16 L 34 16 C 33.699219 11.601562 30 8 24 8 Z M 20 13.601562 C 19.398438 13.601562 19 13.199219 19 12.601562 C 19 12 19.398438 11.601562 20 11.601562 C 20.601562 11.601562 21 12 21 12.601562 C 21 13.101562 20.601562 13.601562 20 13.601562 Z M 28 13.601562 C 27.398438 13.601562 27 13.199219 27 12.601562 C 27 12 27.398438 11.601562 28 11.601562 C 28.601562 11.601562 29 12 29 12.601562 C 29 13.101562 28.601562 13.601562 28 13.601562 Z M 28 13.601562 "/>
<path style=" stroke:none;fill-rule:nonzero;fill:rgb(90.588235%,29.803922%,23.529412%);fill-opacity:1;" d="M 28.300781 10.5 C 28.101562 10.5 27.898438 10.398438 27.699219 10.300781 C 27.199219 10 27.101562 9.398438 27.398438 8.898438 L 29.101562 6.398438 C 29.398438 5.898438 30 5.800781 30.5 6.101562 C 31 6.398438 31.101562 7 30.800781 7.5 L 29.101562 10 C 29 10.300781 28.699219 10.5 28.300781 10.5 Z M 19.300781 10.101562 C 19 10.101562 18.601562 9.898438 18.5 9.601562 L 17.199219 7.5 C 16.898438 7 17 6.398438 17.5 6.101562 C 18 5.800781 18.601562 5.898438 18.898438 6.398438 L 20.199219 8.5 C 20.5 9 20.398438 9.601562 19.898438 9.898438 C 19.699219 10 19.5 10.101562 19.300781 10.101562 Z M 19.300781 10.101562 "/>
</g>
</svg>
