<?xml version="1.0" encoding="UTF-8"?>
<svg xmlns="http://www.w3.org/2000/svg" xmlns:xlink="http://www.w3.org/1999/xlink" width="50pt" height="50pt" viewBox="0 0 50 50" version="1.1">
<g id="surface19821172">
<path style=" stroke:none;fill-rule:nonzero;fill:rgb(90.588235%,29.803922%,23.529412%);fill-opacity:1;" d="M 7.5 14.5 C 7.5 15.050781 7.050781 15.5 6.5 15.5 C 5.949219 15.5 5.5 15.050781 5.5 14.5 C 5.5 13.949219 5.949219 13.5 6.5 13.5 C 7.050781 13.5 7.5 13.949219 7.5 14.5 Z M 7.5 14.5 "/>
<path style=" stroke:none;fill-rule:nonzero;fill:rgb(90.588235%,29.803922%,23.529412%);fill-opacity:1;" d="M 39 6.5 C 39 6.777344 38.777344 7 38.5 7 C 38.222656 7 38 6.777344 38 6.5 C 38 6.222656 38.222656 6 38.5 6 C 38.777344 6 39 6.222656 39 6.5 Z M 39 6.5 "/>
<path style=" stroke:none;fill-rule:nonzero;fill:rgb(98.823529%,87.843137%,63.529412%);fill-opacity:1;" d="M 43.5 25 C 43.5 35.21875 35.21875 43.5 25 43.5 C 14.78125 43.5 6.5 35.21875 6.5 25 C 6.5 14.78125 14.78125 6.5 25 6.5 C 35.21875 6.5 43.5 14.78125 43.5 25 Z M 43.5 25 "/>
<path style=" stroke:none;fill-rule:nonzero;fill:rgb(90.588235%,29.803922%,23.529412%);fill-opacity:1;" d="M 43.5 7.5 C 43.5 8.605469 42.605469 9.5 41.5 9.5 C 40.394531 9.5 39.5 8.605469 39.5 7.5 C 39.5 6.394531 40.394531 5.5 41.5 5.5 C 42.605469 5.5 43.5 6.394531 43.5 7.5 Z M 43.5 7.5 "/>
<path style=" stroke:none;fill-rule:nonzero;fill:rgb(90.588235%,29.803922%,23.529412%);fill-opacity:1;" d="M 44.5 12 C 44.5 12.550781 44.050781 13 43.5 13 C 42.949219 13 42.5 12.550781 42.5 12 C 42.5 11.449219 42.949219 11 43.5 11 C 44.050781 11 44.5 11.449219 44.5 12 Z M 44.5 12 "/>
<path style=" stroke:none;fill-rule:nonzero;fill:rgb(98.431373%,80.392157%,34.901961%);fill-opacity:1;" d="M 41.5 38 C 41.5 38.550781 41.050781 39 40.5 39 C 39.949219 39 39.5 38.550781 39.5 38 C 39.5 37.449219 39.949219 37 40.5 37 C 41.050781 37 41.5 37.449219 41.5 38 Z M 41.5 38 "/>
<path style=" stroke:none;fill-rule:nonzero;fill:rgb(98.431373%,80.392157%,34.901961%);fill-opacity:1;" d="M 9.5 31.5 C 9.5 32.605469 8.605469 33.5 7.5 33.5 C 6.394531 33.5 5.5 32.605469 5.5 31.5 C 5.5 30.394531 6.394531 29.5 7.5 29.5 C 8.605469 29.5 9.5 30.394531 9.5 31.5 Z M 9.5 31.5 "/>
<path style=" stroke:none;fill-rule:nonzero;fill:rgb(90.588235%,29.803922%,23.529412%);fill-opacity:1;" d="M 13.5 43.5 C 13.5 44.050781 13.050781 44.5 12.5 44.5 C 11.949219 44.5 11.5 44.050781 11.5 43.5 C 11.5 42.949219 11.949219 42.5 12.5 42.5 C 13.050781 42.5 13.5 42.949219 13.5 43.5 Z M 13.5 43.5 "/>
<path style=" stroke:none;fill-rule:nonzero;fill:rgb(100%,100%,100%);fill-opacity:1;" d="M 11 27.25 C 11 27.941406 10.441406 28.5 9.75 28.5 C 9.058594 28.5 8.5 27.941406 8.5 27.25 C 8.5 26.558594 9.058594 26 9.75 26 C 10.441406 26 11 26.558594 11 27.25 Z M 11 27.25 "/>
<path style=" stroke:none;fill-rule:nonzero;fill:rgb(90.588235%,29.803922%,23.529412%);fill-opacity:1;" d="M 11 33.5 C 11 33.777344 10.777344 34 10.5 34 C 10.222656 34 10 33.777344 10 33.5 C 10 33.222656 10.222656 33 10.5 33 C 10.777344 33 11 33.222656 11 33.5 Z M 11 33.5 "/>
<path style=" stroke:none;fill-rule:nonzero;fill:rgb(100%,100%,100%);fill-opacity:1;" d="M 40.5 17 C 40.5 17.277344 40.277344 17.5 40 17.5 C 39.722656 17.5 39.5 17.277344 39.5 17 C 39.5 16.722656 39.722656 16.5 40 16.5 C 40.277344 16.5 40.5 16.722656 40.5 17 Z M 40.5 17 "/>
<path style=" stroke:none;fill-rule:nonzero;fill:rgb(90.196078%,49.411765%,13.333333%);fill-opacity:1;" d="M 37.125 25 C 37.125 31.695312 31.695312 37.125 25 37.125 C 18.304688 37.125 12.875 31.695312 12.875 25 C 12.875 18.304688 18.304688 12.875 25 12.875 C 31.695312 12.875 37.125 18.304688 37.125 25 Z M 37.125 25 "/>
<path style=" stroke:none;fill-rule:nonzero;fill:rgb(20%,20%,20%);fill-opacity:1;" d="M 25 37.476562 C 18.121094 37.476562 12.523438 31.878906 12.523438 25 C 12.523438 18.121094 18.121094 12.523438 25 12.523438 C 31.878906 12.523438 37.476562 18.121094 37.476562 25 C 37.476562 31.878906 31.878906 37.476562 25 37.476562 Z M 25 13.226562 C 18.507812 13.226562 13.226562 18.507812 13.226562 25 C 13.226562 31.492188 18.507812 36.773438 25 36.773438 C 31.492188 36.773438 36.773438 31.492188 36.773438 25 C 36.773438 18.507812 31.492188 13.226562 25 13.226562 Z M 25 13.226562 "/>
<path style=" stroke:none;fill-rule:nonzero;fill:rgb(20%,20%,20%);fill-opacity:1;" d="M 35.066406 23.316406 C 34.949219 23.316406 34.84375 23.234375 34.824219 23.113281 C 34.578125 21.828125 34.085938 20.617188 33.363281 19.515625 C 33.289062 19.402344 33.320312 19.246094 33.4375 19.171875 C 33.550781 19.09375 33.707031 19.125 33.78125 19.242188 C 34.539062 20.398438 35.054688 21.667969 35.3125 23.023438 C 35.339844 23.15625 35.25 23.289062 35.113281 23.3125 C 35.097656 23.316406 35.082031 23.316406 35.066406 23.316406 Z M 35.066406 23.316406 "/>
<path style=" stroke:none;fill-rule:nonzero;fill:rgb(20%,20%,20%);fill-opacity:1;" d="M 25 35.5 C 19.210938 35.5 14.5 30.789062 14.5 25 C 14.5 19.210938 19.210938 14.5 25 14.5 C 27.761719 14.5 30.371094 15.5625 32.34375 17.496094 C 32.441406 17.59375 32.445312 17.75 32.347656 17.847656 C 32.253906 17.949219 32.09375 17.949219 31.996094 17.851562 C 30.113281 16.011719 27.632812 15 25 15 C 19.484375 15 15 19.484375 15 25 C 15 30.515625 19.484375 35 25 35 C 30.515625 35 35 30.515625 35 25 C 35 24.863281 35.113281 24.75 35.25 24.75 C 35.386719 24.75 35.5 24.863281 35.5 25 C 35.5 30.789062 30.789062 35.5 25 35.5 Z M 25 35.5 "/>
<path style=" stroke:none;fill-rule:nonzero;fill:rgb(20%,20%,20%);fill-opacity:1;" d="M 20.5 20 L 22.5 20 L 22.5 29.5 L 20.5 29.5 Z M 20.5 20 "/>
<path style=" stroke:none;fill-rule:nonzero;fill:rgb(100%,100%,100%);fill-opacity:1;" d="M 31 23.75 C 31 25.820312 29.320312 27.5 27.25 27.5 C 25.179688 27.5 23.5 25.820312 23.5 23.75 C 23.5 21.679688 25.179688 20 27.25 20 C 29.320312 20 31 21.679688 31 23.75 Z M 31 23.75 "/>
<path style=" stroke:none;fill-rule:nonzero;fill:rgb(20%,20%,20%);fill-opacity:1;" d="M 30.796875 22.652344 C 30.742188 22.652344 30.695312 22.621094 30.679688 22.566406 C 30.4375 21.871094 29.996094 21.269531 29.398438 20.832031 C 29.34375 20.789062 29.332031 20.710938 29.371094 20.65625 C 29.414062 20.601562 29.492188 20.589844 29.546875 20.628906 C 30.183594 21.097656 30.65625 21.742188 30.914062 22.488281 C 30.9375 22.550781 30.902344 22.621094 30.835938 22.644531 C 30.824219 22.648438 30.808594 22.652344 30.796875 22.652344 Z M 30.796875 22.652344 "/>
<path style=" stroke:none;fill-rule:nonzero;fill:rgb(20%,20%,20%);fill-opacity:1;" d="M 27.25 27.625 C 25.113281 27.625 23.375 25.886719 23.375 23.75 C 23.375 21.613281 25.113281 19.875 27.25 19.875 C 27.683594 19.875 28.109375 19.945312 28.515625 20.085938 C 28.578125 20.109375 28.613281 20.179688 28.59375 20.246094 C 28.570312 20.308594 28.5 20.34375 28.433594 20.324219 C 28.054688 20.191406 27.65625 20.125 27.25 20.125 C 25.25 20.125 23.625 21.75 23.625 23.75 C 23.625 25.75 25.25 27.375 27.25 27.375 C 29.25 27.375 30.875 25.75 30.875 23.75 C 30.875 23.679688 30.929688 23.625 31 23.625 C 31.070312 23.625 31.125 23.679688 31.125 23.75 C 31.125 25.886719 29.386719 27.625 27.25 27.625 Z M 27.25 27.625 "/>
</g>
</svg>
